<svg width="24" height="24" viewBox="0 0 24 24" fill="none" xmlns="http://www.w3.org/2000/svg">
<path d="M21.4 18.6C21.1 18.3 19.5 16.7 18.6 15.8C17.9 16.9 16.9 17.9 15.8 18.6C16.7 19.5 18.3 21.1 18.6 21.4C19.4 22.2 20.6 22.2 21.4 21.4C22.2 20.6 22.2 19.4 21.4 18.6Z" fill="#98E5E5"/>
<path opacity="0.35" d="M11 2C16 2 20 6 20 11C20 12.8 19.5 14.4 18.6 15.8L18.3 18.3L15.8 18.6C14.4 19.5 12.7 20.1 10.9 20.1C5.90002 20.1 1.90002 16.1 1.90002 11.1C1.90002 6.1 6.00002 2 11 2Z" fill="#98E5E5"/>
</svg>
