<svg width="25" height="24" viewBox="0 0 25 24" fill="none" xmlns="http://www.w3.org/2000/svg">
<path opacity="0.35" d="M17.5 15H7.5V19H17.5V15Z" fill="white"/>
<path opacity="0.35" d="M12.5 12C15.2614 12 17.5 9.76142 17.5 7C17.5 4.23858 15.2614 2 12.5 2C9.73858 2 7.5 4.23858 7.5 7C7.5 9.76142 9.73858 12 12.5 12Z" fill="white"/>
<path d="M21.443 17.406C21.17 15.981 19.843 15 18.392 15H15.5L12.5 19L9.5 15H7.501C5.157 15 3.83 15.981 3.557 17.406C3.189 19.323 4.649 21 6.5 21H18.5C20.351 21 21.811 19.323 21.443 17.406Z" fill="white"/>
</svg>
