<svg width="24" height="24" viewBox="0 0 24 24" fill="none" xmlns="http://www.w3.org/2000/svg">
<path fill-rule="evenodd" clip-rule="evenodd" d="M10.7001 2.8C11.0001 2.3 11.5001 2 12.0001 2C12.5001 2 13.0001 2.3 13.3001 2.8L15.8001 7.4C15.8001 7.5 15.9001 7.5 15.9001 7.5C15.9001 7.5 16.0001 7.6 16.1001 7.6L21.3001 8.5C21.8001 8.6 22.3001 9 22.4001 9.5C22.6001 10 22.4001 10.6 22.1001 11L18.4001 14.8C18.4001 14.8 18.3001 14.9 18.3001 15C18.3001 15.1 18.3001 15.1 18.3001 15.2L19.0001 20.4C19.1001 20.9 18.8001 21.5 18.4001 21.8C18.0001 22.1 17.4001 22.2 16.9001 21.9L12.2001 19.6C12.1001 19.6 12.1001 19.6 12.0001 19.6C11.9001 19.6 11.9001 19.6 11.8001 19.6L7.1001 21.9C6.6001 22.1 6.0001 22 5.6001 21.7C5.2001 21.4 4.9001 20.8 5.0001 20.3L5.7001 15.1C5.7001 15 5.7001 15 5.7001 14.9C5.7001 14.8 5.6001 14.8 5.6001 14.7L2.0001 11C1.6001 10.6 1.5001 10 1.7001 9.5C1.9001 9 2.3001 8.6 2.8001 8.5L8.0001 7.6C8.1001 7.6 8.1001 7.6 8.2001 7.5L8.3001 7.4L10.7001 2.8Z" fill="#98E5E5"/>
</svg>
