<svg width="24" height="25" viewBox="0 0 24 25" fill="none" xmlns="http://www.w3.org/2000/svg">
<path d="M7.2 18.5C7.1 18.8 7 19.2 7 19.5C7 19.8 7.1 20.2 7.2 20.5H4C3.4 20.5 3 20.1 3 19.5C3 18.9 3.4 18.5 4 18.5H7.2Z" fill="white"/>
<path d="M21 19.5C21 20.1 20.6 20.5 20 20.5H12.8C12.9 20.2 13 19.8 13 19.5C13 19.2 12.9 18.8 12.8 18.5H20C20.6 18.5 21 18.9 21 19.5Z" fill="white"/>
<path opacity="0.35" d="M10 22.5C11.6569 22.5 13 21.1569 13 19.5C13 17.8431 11.6569 16.5 10 16.5C8.34315 16.5 7 17.8431 7 19.5C7 21.1569 8.34315 22.5 10 22.5Z" fill="white"/>
<path d="M12.2 11.5C12.1 11.8 12 12.2 12 12.5C12 12.8 12.1 13.2 12.2 13.5H4C3.4 13.5 3 13.1 3 12.5C3 11.9 3.4 11.5 4 11.5H12.2Z" fill="white"/>
<path d="M21 12.5C21 13.1 20.6 13.5 20 13.5H17.8C17.9 13.2 18 12.8 18 12.5C18 12.2 17.9 11.8 17.8 11.5H20C20.6 11.5 21 11.9 21 12.5Z" fill="white"/>
<path opacity="0.35" d="M15 15.5C16.6569 15.5 18 14.1569 18 12.5C18 10.8431 16.6569 9.5 15 9.5C13.3431 9.5 12 10.8431 12 12.5C12 14.1569 13.3431 15.5 15 15.5Z" fill="white"/>
<path d="M7.2 4.5C7.1 4.8 7 5.2 7 5.5C7 5.8 7.1 6.2 7.2 6.5H4C3.4 6.5 3 6.1 3 5.5C3 4.9 3.4 4.5 4 4.5H7.2Z" fill="white"/>
<path d="M21 5.5C21 6.1 20.6 6.5 20 6.5H12.8C12.9 6.2 13 5.8 13 5.5C13 5.2 12.9 4.8 12.8 4.5H20C20.6 4.5 21 4.9 21 5.5Z" fill="white"/>
<path opacity="0.35" d="M10 8.5C11.6569 8.5 13 7.15685 13 5.5C13 3.84315 11.6569 2.5 10 2.5C8.34315 2.5 7 3.84315 7 5.5C7 7.15685 8.34315 8.5 10 8.5Z" fill="white"/>
</svg>
