<svg width="24" height="24" viewBox="0 0 24 24" fill="none" xmlns="http://www.w3.org/2000/svg">
<path opacity="0.35" d="M2.29999 15.6C0.599994 13.5 0.599994 10.5 2.29999 8.3C4.19999 5.9 7.49999 3 12 3C16.5 3 19.8 5.9 21.7 8.4C23.4 10.5 23.4 13.5 21.7 15.7C19.7 18.2 16.5 21.1 12 21.1C7.49999 21.1 4.19999 18.1 2.29999 15.6Z" fill="#45624E"/>
<path d="M12 6C8.7 6 6 8.7 6 12C6 15.3 8.7 18 12 18C15.3 18 18 15.3 18 12C18 8.7 15.3 6 12 6ZM13 13C11.9 13 11 12.1 11 11C11 9.9 11.9 9 13 9C14.1 9 15 9.9 15 11C15 12.1 14.1 13 13 13Z" fill="#45624E"/>
</svg>
