<svg width="25" height="24" viewBox="0 0 25 24" fill="none" xmlns="http://www.w3.org/2000/svg">
<path opacity="0.35" d="M19.5 4H5.5C3.84315 4 2.5 5.34315 2.5 7V17C2.5 18.6569 3.84315 20 5.5 20H19.5C21.1569 20 22.5 18.6569 22.5 17V7C22.5 5.34315 21.1569 4 19.5 4Z" fill="#98E5E5"/>
<path d="M19.5 13C20.0523 13 20.5 12.5523 20.5 12C20.5 11.4477 20.0523 11 19.5 11C18.9477 11 18.5 11.4477 18.5 12C18.5 12.5523 18.9477 13 19.5 13Z" fill="#98E5E5"/>
<path d="M19.5 9C20.0523 9 20.5 8.55228 20.5 8C20.5 7.44772 20.0523 7 19.5 7C18.9477 7 18.5 7.44772 18.5 8C18.5 8.55228 18.9477 9 19.5 9Z" fill="#98E5E5"/>
<path d="M19.5 17C20.0523 17 20.5 16.5523 20.5 16C20.5 15.4477 20.0523 15 19.5 15C18.9477 15 18.5 15.4477 18.5 16C18.5 16.5523 18.9477 17 19.5 17Z" fill="#98E5E5"/>
<path d="M5.5 13C6.05228 13 6.5 12.5523 6.5 12C6.5 11.4477 6.05228 11 5.5 11C4.94772 11 4.5 11.4477 4.5 12C4.5 12.5523 4.94772 13 5.5 13Z" fill="#98E5E5"/>
<path d="M5.5 9C6.05228 9 6.5 8.55228 6.5 8C6.5 7.44772 6.05228 7 5.5 7C4.94772 7 4.5 7.44772 4.5 8C4.5 8.55228 4.94772 9 5.5 9Z" fill="#98E5E5"/>
<path d="M5.5 17C6.05228 17 6.5 16.5523 6.5 16C6.5 15.4477 6.05228 15 5.5 15C4.94772 15 4.5 15.4477 4.5 16C4.5 16.5523 4.94772 17 5.5 17Z" fill="#98E5E5"/>
</svg>
